<?xml version="1.0" encoding="utf-8"?><!-- Uploaded to: SVG Repo, www.svgrepo.com, Generator: SVG Repo Mixer Tools -->
<svg fill="#000000" width="800px" height="800px" viewBox="0 0 24 24" id="linkedin" data-name="Flat Color" xmlns="http://www.w3.org/2000/svg" class="icon flat-color"><rect id="primary" x="2" y="2" width="20" height="20" rx="2" style="fill: rgb(0, 0, 0);"></rect><path id="secondary" d="M17,14v3a1,1,0,0,1-2,0V14a1,1,0,0,0-2,0v3a1,1,0,0,1-2,0V12a1,1,0,0,1,1.71-.7A3,3,0,0,1,14,11,3,3,0,0,1,17,14ZM8,11a1,1,0,0,0-1,1v5a1,1,0,0,0,2,0V12A1,1,0,0,0,8,11ZM8,6A1.5,1.5,0,1,0,9.5,7.5,1.5,1.5,0,0,0,8,6Z" style="fill: rgb(44, 169, 188);"></path></svg>